G04 #@! TF.FileFunction,Copper,L1,Top,Signal*
%FSLAX46Y46*%
G04 Gerber Fmt 4.6, Leading zero omitted, Abs format (unit mm)*
G04 Created by KiCad (PCBNEW 4.0.7) date 09/14/17 09:13:08*
%MOMM*%
%LPD*%
G01*
G04 APERTURE LIST*
%ADD10C,0.100000*%
%ADD11R,0.750000X0.800000*%
%ADD12R,0.500000X0.900000*%
%ADD13R,0.900000X0.500000*%
%ADD14R,0.800000X0.750000*%
%ADD15R,1.250000X1.000000*%
%ADD16R,1.200000X1.200000*%
%ADD17C,1.200000*%
%ADD18C,1.400000*%
%ADD19O,1.300000X2.800000*%
%ADD20R,0.600000X1.000000*%
%ADD21R,1.450000X0.450000*%
%ADD22C,0.584200*%
%ADD23C,0.152400*%
%ADD24C,0.254000*%
G04 APERTURE END LIST*
D10*
D11*
X149400000Y-87250000D03*
X149400000Y-85750000D03*
D12*
X144768000Y-89662000D03*
X143268000Y-89662000D03*
D13*
X150876000Y-85864000D03*
X150876000Y-87364000D03*
X149725000Y-82025000D03*
X149725000Y-83525000D03*
X139700000Y-91020200D03*
X139700000Y-92520200D03*
X141503400Y-92545600D03*
X141503400Y-91045600D03*
D12*
X139712000Y-81026000D03*
X141212000Y-81026000D03*
D14*
X145046000Y-92202000D03*
X146546000Y-92202000D03*
D11*
X147574000Y-81800000D03*
X147574000Y-83300000D03*
D15*
X145542000Y-83804000D03*
X145542000Y-81804000D03*
D16*
X139870000Y-83566000D03*
X142070000Y-83566000D03*
D17*
X142042000Y-93980000D03*
X144542000Y-93980000D03*
X146542000Y-93980000D03*
X149042000Y-93980000D03*
D18*
X147792000Y-96080000D03*
X143292000Y-96080000D03*
D19*
X151242000Y-96080000D03*
X139842000Y-96080000D03*
D20*
X151130000Y-90043000D03*
X149230000Y-90043000D03*
X150180000Y-92743000D03*
D21*
X140700000Y-85875000D03*
X140700000Y-86525000D03*
X140700000Y-87175000D03*
X140700000Y-87825000D03*
X146600000Y-87825000D03*
X146600000Y-87175000D03*
X146600000Y-86525000D03*
X146600000Y-85875000D03*
D22*
X142075000Y-82275000D03*
X150400000Y-91100000D03*
X148625000Y-88300000D03*
X143850000Y-92200000D03*
X140425000Y-89150000D03*
X139725000Y-93600000D03*
X146475000Y-90900000D03*
X143764000Y-84582000D03*
X139275000Y-86325000D03*
X142176500Y-89535000D03*
D23*
X142070000Y-83566000D02*
X142070000Y-82280000D01*
X142070000Y-82280000D02*
X142075000Y-82275000D01*
X151130000Y-90043000D02*
X151130000Y-90395000D01*
X151130000Y-90395000D02*
X150400000Y-91100000D01*
X149400000Y-87250000D02*
X149400000Y-87525000D01*
X149400000Y-87525000D02*
X148625000Y-88300000D01*
X142070000Y-83566000D02*
X142684000Y-83566000D01*
X142684000Y-83566000D02*
X143325000Y-82925000D01*
X145046000Y-92202000D02*
X143852000Y-92202000D01*
X143852000Y-92202000D02*
X143850000Y-92200000D01*
X140700000Y-87825000D02*
X140700000Y-88875000D01*
X140700000Y-88875000D02*
X140425000Y-89150000D01*
X139700000Y-92520200D02*
X139700000Y-93575000D01*
X139700000Y-93575000D02*
X139725000Y-93600000D01*
X149400000Y-87250000D02*
X149400000Y-87500000D01*
X142042000Y-93980000D02*
X142240000Y-93980000D01*
X149400000Y-85750000D02*
X149400000Y-84625000D01*
X149675000Y-84350000D02*
X149675000Y-83575000D01*
X149400000Y-84625000D02*
X149675000Y-84350000D01*
X149675000Y-83575000D02*
X149725000Y-83525000D01*
X149600000Y-83650000D02*
X149725000Y-83525000D01*
X146600000Y-87175000D02*
X147975000Y-87175000D01*
X148650000Y-86500000D02*
X149286682Y-85628484D01*
X147975000Y-87175000D02*
X148650000Y-86500000D01*
X149286682Y-85628484D02*
X149311682Y-85603484D01*
X149127236Y-85897764D02*
X149299682Y-85591484D01*
X149299682Y-85591484D02*
X149311682Y-85603484D01*
X149311682Y-85603484D02*
X149146000Y-85484000D01*
X149042000Y-93980000D02*
X149042000Y-93881000D01*
X149042000Y-93881000D02*
X150180000Y-92743000D01*
X149042000Y-93980000D02*
X149042000Y-93670000D01*
X149042000Y-93670000D02*
X147828000Y-92456000D01*
X147828000Y-92456000D02*
X146546000Y-92456000D01*
X149042000Y-93980000D02*
X149042000Y-93500000D01*
X144542000Y-83804000D02*
X145542000Y-83804000D01*
X143764000Y-84582000D02*
X144542000Y-83804000D01*
X147825000Y-90900000D02*
X146475000Y-90900000D01*
X148682000Y-90043000D02*
X147825000Y-90900000D01*
X149230000Y-90043000D02*
X148682000Y-90043000D01*
X141503400Y-92545600D02*
X142150400Y-92545600D01*
X143764000Y-90932000D02*
X146475000Y-90900000D01*
X142150400Y-92545600D02*
X143764000Y-90932000D01*
X146460000Y-84934000D02*
X146714000Y-84934000D01*
X147574000Y-84074000D02*
X147574000Y-83300000D01*
X147320000Y-84328000D02*
X147574000Y-84074000D01*
X146714000Y-84934000D02*
X147320000Y-84328000D01*
X146600000Y-85875000D02*
X146460000Y-84934000D01*
X146460000Y-84934000D02*
X145542000Y-84016000D01*
X145542000Y-84016000D02*
X145542000Y-83804000D01*
X139870000Y-83566000D02*
X139700000Y-83566000D01*
X139700000Y-83566000D02*
X139446000Y-83058000D01*
X139446000Y-81292000D02*
X139712000Y-81026000D01*
X139446000Y-83058000D02*
X139446000Y-81292000D01*
X150876000Y-87364000D02*
X150918384Y-88391221D01*
X148174000Y-89662000D02*
X144768000Y-89662000D01*
X148682000Y-89154000D02*
X148174000Y-89662000D01*
X150129780Y-89154000D02*
X148682000Y-89154000D01*
X150918384Y-88391221D02*
X150129780Y-89154000D01*
X146600000Y-87825000D02*
X146460000Y-88802000D01*
X145600000Y-89662000D02*
X144768000Y-89662000D01*
X146460000Y-88802000D02*
X145600000Y-89662000D01*
X140700000Y-86525000D02*
X139458000Y-86508000D01*
X139458000Y-86508000D02*
X139275000Y-86325000D01*
X143268000Y-89662000D02*
X142303500Y-89662000D01*
X139468500Y-85893000D02*
X140700000Y-85875000D01*
X139275000Y-86325000D02*
X139468500Y-85893000D01*
X142303500Y-89662000D02*
X142176500Y-89535000D01*
X150876000Y-85864000D02*
X150876000Y-82226000D01*
X150675000Y-82025000D02*
X149725000Y-82025000D01*
X150876000Y-82226000D02*
X150675000Y-82025000D01*
X149725000Y-82025000D02*
X149550000Y-82025000D01*
X149550000Y-82025000D02*
X148650000Y-80825000D01*
X141212000Y-81026000D02*
X143549000Y-81026000D01*
X147775000Y-86525000D02*
X146600000Y-86525000D01*
X148075000Y-86225000D02*
X147775000Y-86525000D01*
X148075000Y-84950000D02*
X148075000Y-86225000D01*
X148650000Y-84375000D02*
X148075000Y-84950000D01*
X148650000Y-80825000D02*
X148650000Y-84375000D01*
X148325000Y-80500000D02*
X148650000Y-80825000D01*
X144075000Y-80500000D02*
X148325000Y-80500000D01*
X143549000Y-81026000D02*
X144075000Y-80500000D01*
X141224000Y-81026000D02*
X141212000Y-81026000D01*
X139700000Y-91020200D02*
X141478000Y-91020200D01*
X141478000Y-91020200D02*
X141503400Y-91045600D01*
X139700000Y-91020200D02*
X139700000Y-90125000D01*
X139575000Y-87175000D02*
X140700000Y-87175000D01*
X139275000Y-87475000D02*
X139575000Y-87175000D01*
X139275000Y-89700000D02*
X139275000Y-87475000D01*
X139700000Y-90125000D02*
X139275000Y-89700000D01*
D24*
G36*
X144011000Y-91700690D02*
X144011000Y-91916250D01*
X144169750Y-92075000D01*
X144919000Y-92075000D01*
X144919000Y-92055000D01*
X145173000Y-92055000D01*
X145173000Y-92075000D01*
X145193000Y-92075000D01*
X145193000Y-92329000D01*
X145173000Y-92329000D01*
X145173000Y-92349000D01*
X144919000Y-92349000D01*
X144919000Y-92329000D01*
X144169750Y-92329000D01*
X144011000Y-92487750D01*
X144011000Y-92703310D01*
X144067526Y-92839777D01*
X143843343Y-92932408D01*
X143495629Y-93279515D01*
X143307215Y-93733266D01*
X143306786Y-94224579D01*
X143494408Y-94678657D01*
X143562392Y-94746759D01*
X143558713Y-94745232D01*
X143027617Y-94744769D01*
X142998435Y-94756827D01*
X142904737Y-94663129D01*
X143130164Y-94613617D01*
X143289807Y-94148964D01*
X143259482Y-93658587D01*
X143130164Y-93346383D01*
X142904735Y-93296870D01*
X142221605Y-93980000D01*
X142235748Y-93994143D01*
X142056143Y-94173748D01*
X142042000Y-94159605D01*
X141358870Y-94842735D01*
X141408383Y-95068164D01*
X141873036Y-95227807D01*
X142281351Y-95202557D01*
X142160902Y-95322796D01*
X141957232Y-95813287D01*
X141956769Y-96344383D01*
X142159582Y-96835229D01*
X142534796Y-97211098D01*
X142830776Y-97334000D01*
X141034678Y-97334000D01*
X141127000Y-96869868D01*
X141127000Y-95290132D01*
X141029185Y-94798384D01*
X140750632Y-94381500D01*
X140333748Y-94102947D01*
X139842000Y-94005132D01*
X139394000Y-94094245D01*
X139394000Y-93405200D01*
X139414250Y-93405200D01*
X139573000Y-93246450D01*
X139573000Y-92645200D01*
X139553000Y-92645200D01*
X139553000Y-92395200D01*
X139573000Y-92395200D01*
X139573000Y-92373200D01*
X139827000Y-92373200D01*
X139827000Y-92395200D01*
X139847000Y-92395200D01*
X139847000Y-92645200D01*
X139827000Y-92645200D01*
X139827000Y-93246450D01*
X139985750Y-93405200D01*
X140276310Y-93405200D01*
X140509699Y-93308527D01*
X140582213Y-93236012D01*
X140589310Y-93247041D01*
X140801510Y-93392031D01*
X140929264Y-93417902D01*
X140794193Y-93811036D01*
X140824518Y-94301413D01*
X140953836Y-94613617D01*
X141179265Y-94663130D01*
X141862395Y-93980000D01*
X141848253Y-93965858D01*
X142027858Y-93786253D01*
X142042000Y-93800395D01*
X142725130Y-93117265D01*
X142699809Y-93001979D01*
X144018002Y-91683786D01*
X144011000Y-91700690D01*
X144011000Y-91700690D01*
G37*
X144011000Y-91700690D02*
X144011000Y-91916250D01*
X144169750Y-92075000D01*
X144919000Y-92075000D01*
X144919000Y-92055000D01*
X145173000Y-92055000D01*
X145173000Y-92075000D01*
X145193000Y-92075000D01*
X145193000Y-92329000D01*
X145173000Y-92329000D01*
X145173000Y-92349000D01*
X144919000Y-92349000D01*
X144919000Y-92329000D01*
X144169750Y-92329000D01*
X144011000Y-92487750D01*
X144011000Y-92703310D01*
X144067526Y-92839777D01*
X143843343Y-92932408D01*
X143495629Y-93279515D01*
X143307215Y-93733266D01*
X143306786Y-94224579D01*
X143494408Y-94678657D01*
X143562392Y-94746759D01*
X143558713Y-94745232D01*
X143027617Y-94744769D01*
X142998435Y-94756827D01*
X142904737Y-94663129D01*
X143130164Y-94613617D01*
X143289807Y-94148964D01*
X143259482Y-93658587D01*
X143130164Y-93346383D01*
X142904735Y-93296870D01*
X142221605Y-93980000D01*
X142235748Y-93994143D01*
X142056143Y-94173748D01*
X142042000Y-94159605D01*
X141358870Y-94842735D01*
X141408383Y-95068164D01*
X141873036Y-95227807D01*
X142281351Y-95202557D01*
X142160902Y-95322796D01*
X141957232Y-95813287D01*
X141956769Y-96344383D01*
X142159582Y-96835229D01*
X142534796Y-97211098D01*
X142830776Y-97334000D01*
X141034678Y-97334000D01*
X141127000Y-96869868D01*
X141127000Y-95290132D01*
X141029185Y-94798384D01*
X140750632Y-94381500D01*
X140333748Y-94102947D01*
X139842000Y-94005132D01*
X139394000Y-94094245D01*
X139394000Y-93405200D01*
X139414250Y-93405200D01*
X139573000Y-93246450D01*
X139573000Y-92645200D01*
X139553000Y-92645200D01*
X139553000Y-92395200D01*
X139573000Y-92395200D01*
X139573000Y-92373200D01*
X139827000Y-92373200D01*
X139827000Y-92395200D01*
X139847000Y-92395200D01*
X139847000Y-92645200D01*
X139827000Y-92645200D01*
X139827000Y-93246450D01*
X139985750Y-93405200D01*
X140276310Y-93405200D01*
X140509699Y-93308527D01*
X140582213Y-93236012D01*
X140589310Y-93247041D01*
X140801510Y-93392031D01*
X140929264Y-93417902D01*
X140794193Y-93811036D01*
X140824518Y-94301413D01*
X140953836Y-94613617D01*
X141179265Y-94663130D01*
X141862395Y-93980000D01*
X141848253Y-93965858D01*
X142027858Y-93786253D01*
X142042000Y-93800395D01*
X142725130Y-93117265D01*
X142699809Y-93001979D01*
X144018002Y-91683786D01*
X144011000Y-91700690D01*
G36*
X150353750Y-89916000D02*
X151003000Y-89916000D01*
X151003000Y-89896000D01*
X151257000Y-89896000D01*
X151257000Y-89916000D01*
X151277000Y-89916000D01*
X151277000Y-90170000D01*
X151257000Y-90170000D01*
X151257000Y-91019250D01*
X151415750Y-91178000D01*
X151556309Y-91178000D01*
X151753500Y-91096321D01*
X151753500Y-94116145D01*
X151733748Y-94102947D01*
X151242000Y-94005132D01*
X150750252Y-94102947D01*
X150333368Y-94381500D01*
X150054815Y-94798384D01*
X149957000Y-95290132D01*
X149957000Y-96869868D01*
X150049322Y-97334000D01*
X148252977Y-97334000D01*
X148547229Y-97212418D01*
X148923098Y-96837204D01*
X149126768Y-96346713D01*
X149127231Y-95815617D01*
X148924418Y-95324771D01*
X148814641Y-95214802D01*
X149286579Y-95215214D01*
X149740657Y-95027592D01*
X150088371Y-94680485D01*
X150276785Y-94226734D01*
X150277079Y-93890440D01*
X150480000Y-93890440D01*
X150715317Y-93846162D01*
X150931441Y-93707090D01*
X151076431Y-93494890D01*
X151127440Y-93243000D01*
X151127440Y-92243000D01*
X151083162Y-92007683D01*
X150944090Y-91791559D01*
X150731890Y-91646569D01*
X150480000Y-91595560D01*
X149880000Y-91595560D01*
X149644683Y-91639838D01*
X149428559Y-91778910D01*
X149283569Y-91991110D01*
X149232560Y-92243000D01*
X149232560Y-92684652D01*
X149172099Y-92745113D01*
X149122859Y-92745070D01*
X148330894Y-91953106D01*
X148100165Y-91798937D01*
X147828000Y-91744800D01*
X147577973Y-91744800D01*
X147552834Y-91611200D01*
X147825000Y-91611200D01*
X148097165Y-91557063D01*
X148327894Y-91402894D01*
X148626572Y-91104216D01*
X148678110Y-91139431D01*
X148930000Y-91190440D01*
X149530000Y-91190440D01*
X149765317Y-91146162D01*
X149981441Y-91007090D01*
X150126431Y-90794890D01*
X150177440Y-90543000D01*
X150177440Y-90328750D01*
X150195000Y-90328750D01*
X150195000Y-90669310D01*
X150291673Y-90902699D01*
X150470302Y-91081327D01*
X150703691Y-91178000D01*
X150844250Y-91178000D01*
X151003000Y-91019250D01*
X151003000Y-90170000D01*
X150353750Y-90170000D01*
X150195000Y-90328750D01*
X150177440Y-90328750D01*
X150177440Y-89855720D01*
X150260173Y-89839263D01*
X150274424Y-89836674D01*
X150353750Y-89916000D01*
X150353750Y-89916000D01*
G37*
X150353750Y-89916000D02*
X151003000Y-89916000D01*
X151003000Y-89896000D01*
X151257000Y-89896000D01*
X151257000Y-89916000D01*
X151277000Y-89916000D01*
X151277000Y-90170000D01*
X151257000Y-90170000D01*
X151257000Y-91019250D01*
X151415750Y-91178000D01*
X151556309Y-91178000D01*
X151753500Y-91096321D01*
X151753500Y-94116145D01*
X151733748Y-94102947D01*
X151242000Y-94005132D01*
X150750252Y-94102947D01*
X150333368Y-94381500D01*
X150054815Y-94798384D01*
X149957000Y-95290132D01*
X149957000Y-96869868D01*
X150049322Y-97334000D01*
X148252977Y-97334000D01*
X148547229Y-97212418D01*
X148923098Y-96837204D01*
X149126768Y-96346713D01*
X149127231Y-95815617D01*
X148924418Y-95324771D01*
X148814641Y-95214802D01*
X149286579Y-95215214D01*
X149740657Y-95027592D01*
X150088371Y-94680485D01*
X150276785Y-94226734D01*
X150277079Y-93890440D01*
X150480000Y-93890440D01*
X150715317Y-93846162D01*
X150931441Y-93707090D01*
X151076431Y-93494890D01*
X151127440Y-93243000D01*
X151127440Y-92243000D01*
X151083162Y-92007683D01*
X150944090Y-91791559D01*
X150731890Y-91646569D01*
X150480000Y-91595560D01*
X149880000Y-91595560D01*
X149644683Y-91639838D01*
X149428559Y-91778910D01*
X149283569Y-91991110D01*
X149232560Y-92243000D01*
X149232560Y-92684652D01*
X149172099Y-92745113D01*
X149122859Y-92745070D01*
X148330894Y-91953106D01*
X148100165Y-91798937D01*
X147828000Y-91744800D01*
X147577973Y-91744800D01*
X147552834Y-91611200D01*
X147825000Y-91611200D01*
X148097165Y-91557063D01*
X148327894Y-91402894D01*
X148626572Y-91104216D01*
X148678110Y-91139431D01*
X148930000Y-91190440D01*
X149530000Y-91190440D01*
X149765317Y-91146162D01*
X149981441Y-91007090D01*
X150126431Y-90794890D01*
X150177440Y-90543000D01*
X150177440Y-90328750D01*
X150195000Y-90328750D01*
X150195000Y-90669310D01*
X150291673Y-90902699D01*
X150470302Y-91081327D01*
X150703691Y-91178000D01*
X150844250Y-91178000D01*
X151003000Y-91019250D01*
X151003000Y-90170000D01*
X150353750Y-90170000D01*
X150195000Y-90328750D01*
X150177440Y-90328750D01*
X150177440Y-89855720D01*
X150260173Y-89839263D01*
X150274424Y-89836674D01*
X150353750Y-89916000D01*
G36*
X144282000Y-81518250D02*
X144440750Y-81677000D01*
X145415000Y-81677000D01*
X145415000Y-81657000D01*
X145669000Y-81657000D01*
X145669000Y-81677000D01*
X146643250Y-81677000D01*
X146685000Y-81635250D01*
X146722750Y-81673000D01*
X147447000Y-81673000D01*
X147447000Y-81653000D01*
X147701000Y-81653000D01*
X147701000Y-81673000D01*
X147721000Y-81673000D01*
X147721000Y-81927000D01*
X147701000Y-81927000D01*
X147701000Y-81947000D01*
X147447000Y-81947000D01*
X147447000Y-81927000D01*
X146722750Y-81927000D01*
X146681000Y-81968750D01*
X146643250Y-81931000D01*
X145669000Y-81931000D01*
X145669000Y-81951000D01*
X145415000Y-81951000D01*
X145415000Y-81931000D01*
X144440750Y-81931000D01*
X144282000Y-82089750D01*
X144282000Y-82430309D01*
X144378673Y-82663698D01*
X144519910Y-82804936D01*
X144465559Y-82839910D01*
X144320569Y-83052110D01*
X144302689Y-83140402D01*
X144269835Y-83146937D01*
X144039106Y-83301106D01*
X143685381Y-83654831D01*
X143580397Y-83654739D01*
X143246113Y-83792863D01*
X143146250Y-83693000D01*
X142197000Y-83693000D01*
X142197000Y-84642250D01*
X142355750Y-84801000D01*
X142796309Y-84801000D01*
X142843319Y-84781528D01*
X142977585Y-85106474D01*
X143238154Y-85367499D01*
X143578779Y-85508939D01*
X143947603Y-85509261D01*
X144288474Y-85368415D01*
X144549499Y-85107846D01*
X144642142Y-84884738D01*
X144665110Y-84900431D01*
X144917000Y-84951440D01*
X145471652Y-84951440D01*
X145595488Y-85075276D01*
X145423559Y-85185910D01*
X145278569Y-85398110D01*
X145227560Y-85650000D01*
X145227560Y-86100000D01*
X145247067Y-86203671D01*
X145227560Y-86300000D01*
X145227560Y-86750000D01*
X145247067Y-86853671D01*
X145227560Y-86950000D01*
X145227560Y-87400000D01*
X145247067Y-87503671D01*
X145227560Y-87600000D01*
X145227560Y-88050000D01*
X145271838Y-88285317D01*
X145410910Y-88501441D01*
X145615191Y-88641020D01*
X145487400Y-88768811D01*
X145482090Y-88760559D01*
X145269890Y-88615569D01*
X145018000Y-88564560D01*
X144518000Y-88564560D01*
X144282683Y-88608838D01*
X144066559Y-88747910D01*
X144018866Y-88817711D01*
X143982090Y-88760559D01*
X143769890Y-88615569D01*
X143518000Y-88564560D01*
X143018000Y-88564560D01*
X142782683Y-88608838D01*
X142618313Y-88714607D01*
X142361721Y-88608061D01*
X141992897Y-88607739D01*
X141652026Y-88748585D01*
X141391001Y-89009154D01*
X141249561Y-89349779D01*
X141249239Y-89718603D01*
X141390085Y-90059474D01*
X141478616Y-90148160D01*
X141053400Y-90148160D01*
X140818083Y-90192438D01*
X140636941Y-90309000D01*
X140599807Y-90309000D01*
X140411200Y-90180130D01*
X140411200Y-90125000D01*
X140394889Y-90043000D01*
X140357063Y-89852835D01*
X140202895Y-89622106D01*
X139986200Y-89405412D01*
X139986200Y-88685000D01*
X140414250Y-88685000D01*
X140573000Y-88526250D01*
X140573000Y-88047440D01*
X140827000Y-88047440D01*
X140827000Y-88526250D01*
X140985750Y-88685000D01*
X141551309Y-88685000D01*
X141784698Y-88588327D01*
X141963327Y-88409699D01*
X142060000Y-88176310D01*
X142060000Y-88096250D01*
X141901250Y-87937500D01*
X141762359Y-87937500D01*
X141876441Y-87864090D01*
X142021431Y-87651890D01*
X142036558Y-87577192D01*
X142060000Y-87553750D01*
X142060000Y-87473690D01*
X142058333Y-87469665D01*
X142072440Y-87400000D01*
X142072440Y-86950000D01*
X142052933Y-86846329D01*
X142072440Y-86750000D01*
X142072440Y-86300000D01*
X142052933Y-86196329D01*
X142072440Y-86100000D01*
X142072440Y-85650000D01*
X142028162Y-85414683D01*
X141889090Y-85198559D01*
X141676890Y-85053569D01*
X141425000Y-85002560D01*
X139975000Y-85002560D01*
X139739683Y-85046838D01*
X139531495Y-85180803D01*
X139458106Y-85181876D01*
X139394000Y-85195604D01*
X139394000Y-84813440D01*
X140470000Y-84813440D01*
X140705317Y-84769162D01*
X140921441Y-84630090D01*
X140967969Y-84561994D01*
X141110302Y-84704327D01*
X141343691Y-84801000D01*
X141784250Y-84801000D01*
X141943000Y-84642250D01*
X141943000Y-83693000D01*
X141923000Y-83693000D01*
X141923000Y-83439000D01*
X141943000Y-83439000D01*
X141943000Y-82489750D01*
X142197000Y-82489750D01*
X142197000Y-83439000D01*
X143146250Y-83439000D01*
X143305000Y-83280250D01*
X143305000Y-82839690D01*
X143208327Y-82606301D01*
X143029698Y-82427673D01*
X142796309Y-82331000D01*
X142355750Y-82331000D01*
X142197000Y-82489750D01*
X141943000Y-82489750D01*
X141784250Y-82331000D01*
X141343691Y-82331000D01*
X141110302Y-82427673D01*
X140969064Y-82568910D01*
X140934090Y-82514559D01*
X140721890Y-82369569D01*
X140470000Y-82318560D01*
X140157200Y-82318560D01*
X140157200Y-82086711D01*
X140197317Y-82079162D01*
X140413441Y-81940090D01*
X140461134Y-81870289D01*
X140497910Y-81927441D01*
X140710110Y-82072431D01*
X140962000Y-82123440D01*
X141462000Y-82123440D01*
X141697317Y-82079162D01*
X141913441Y-81940090D01*
X142052070Y-81737200D01*
X143549000Y-81737200D01*
X143821165Y-81683063D01*
X144051894Y-81528894D01*
X144282000Y-81298788D01*
X144282000Y-81518250D01*
X144282000Y-81518250D01*
G37*
X144282000Y-81518250D02*
X144440750Y-81677000D01*
X145415000Y-81677000D01*
X145415000Y-81657000D01*
X145669000Y-81657000D01*
X145669000Y-81677000D01*
X146643250Y-81677000D01*
X146685000Y-81635250D01*
X146722750Y-81673000D01*
X147447000Y-81673000D01*
X147447000Y-81653000D01*
X147701000Y-81653000D01*
X147701000Y-81673000D01*
X147721000Y-81673000D01*
X147721000Y-81927000D01*
X147701000Y-81927000D01*
X147701000Y-81947000D01*
X147447000Y-81947000D01*
X147447000Y-81927000D01*
X146722750Y-81927000D01*
X146681000Y-81968750D01*
X146643250Y-81931000D01*
X145669000Y-81931000D01*
X145669000Y-81951000D01*
X145415000Y-81951000D01*
X145415000Y-81931000D01*
X144440750Y-81931000D01*
X144282000Y-82089750D01*
X144282000Y-82430309D01*
X144378673Y-82663698D01*
X144519910Y-82804936D01*
X144465559Y-82839910D01*
X144320569Y-83052110D01*
X144302689Y-83140402D01*
X144269835Y-83146937D01*
X144039106Y-83301106D01*
X143685381Y-83654831D01*
X143580397Y-83654739D01*
X143246113Y-83792863D01*
X143146250Y-83693000D01*
X142197000Y-83693000D01*
X142197000Y-84642250D01*
X142355750Y-84801000D01*
X142796309Y-84801000D01*
X142843319Y-84781528D01*
X142977585Y-85106474D01*
X143238154Y-85367499D01*
X143578779Y-85508939D01*
X143947603Y-85509261D01*
X144288474Y-85368415D01*
X144549499Y-85107846D01*
X144642142Y-84884738D01*
X144665110Y-84900431D01*
X144917000Y-84951440D01*
X145471652Y-84951440D01*
X145595488Y-85075276D01*
X145423559Y-85185910D01*
X145278569Y-85398110D01*
X145227560Y-85650000D01*
X145227560Y-86100000D01*
X145247067Y-86203671D01*
X145227560Y-86300000D01*
X145227560Y-86750000D01*
X145247067Y-86853671D01*
X145227560Y-86950000D01*
X145227560Y-87400000D01*
X145247067Y-87503671D01*
X145227560Y-87600000D01*
X145227560Y-88050000D01*
X145271838Y-88285317D01*
X145410910Y-88501441D01*
X145615191Y-88641020D01*
X145487400Y-88768811D01*
X145482090Y-88760559D01*
X145269890Y-88615569D01*
X145018000Y-88564560D01*
X144518000Y-88564560D01*
X144282683Y-88608838D01*
X144066559Y-88747910D01*
X144018866Y-88817711D01*
X143982090Y-88760559D01*
X143769890Y-88615569D01*
X143518000Y-88564560D01*
X143018000Y-88564560D01*
X142782683Y-88608838D01*
X142618313Y-88714607D01*
X142361721Y-88608061D01*
X141992897Y-88607739D01*
X141652026Y-88748585D01*
X141391001Y-89009154D01*
X141249561Y-89349779D01*
X141249239Y-89718603D01*
X141390085Y-90059474D01*
X141478616Y-90148160D01*
X141053400Y-90148160D01*
X140818083Y-90192438D01*
X140636941Y-90309000D01*
X140599807Y-90309000D01*
X140411200Y-90180130D01*
X140411200Y-90125000D01*
X140394889Y-90043000D01*
X140357063Y-89852835D01*
X140202895Y-89622106D01*
X139986200Y-89405412D01*
X139986200Y-88685000D01*
X140414250Y-88685000D01*
X140573000Y-88526250D01*
X140573000Y-88047440D01*
X140827000Y-88047440D01*
X140827000Y-88526250D01*
X140985750Y-88685000D01*
X141551309Y-88685000D01*
X141784698Y-88588327D01*
X141963327Y-88409699D01*
X142060000Y-88176310D01*
X142060000Y-88096250D01*
X141901250Y-87937500D01*
X141762359Y-87937500D01*
X141876441Y-87864090D01*
X142021431Y-87651890D01*
X142036558Y-87577192D01*
X142060000Y-87553750D01*
X142060000Y-87473690D01*
X142058333Y-87469665D01*
X142072440Y-87400000D01*
X142072440Y-86950000D01*
X142052933Y-86846329D01*
X142072440Y-86750000D01*
X142072440Y-86300000D01*
X142052933Y-86196329D01*
X142072440Y-86100000D01*
X142072440Y-85650000D01*
X142028162Y-85414683D01*
X141889090Y-85198559D01*
X141676890Y-85053569D01*
X141425000Y-85002560D01*
X139975000Y-85002560D01*
X139739683Y-85046838D01*
X139531495Y-85180803D01*
X139458106Y-85181876D01*
X139394000Y-85195604D01*
X139394000Y-84813440D01*
X140470000Y-84813440D01*
X140705317Y-84769162D01*
X140921441Y-84630090D01*
X140967969Y-84561994D01*
X141110302Y-84704327D01*
X141343691Y-84801000D01*
X141784250Y-84801000D01*
X141943000Y-84642250D01*
X141943000Y-83693000D01*
X141923000Y-83693000D01*
X141923000Y-83439000D01*
X141943000Y-83439000D01*
X141943000Y-82489750D01*
X142197000Y-82489750D01*
X142197000Y-83439000D01*
X143146250Y-83439000D01*
X143305000Y-83280250D01*
X143305000Y-82839690D01*
X143208327Y-82606301D01*
X143029698Y-82427673D01*
X142796309Y-82331000D01*
X142355750Y-82331000D01*
X142197000Y-82489750D01*
X141943000Y-82489750D01*
X141784250Y-82331000D01*
X141343691Y-82331000D01*
X141110302Y-82427673D01*
X140969064Y-82568910D01*
X140934090Y-82514559D01*
X140721890Y-82369569D01*
X140470000Y-82318560D01*
X140157200Y-82318560D01*
X140157200Y-82086711D01*
X140197317Y-82079162D01*
X140413441Y-81940090D01*
X140461134Y-81870289D01*
X140497910Y-81927441D01*
X140710110Y-82072431D01*
X140962000Y-82123440D01*
X141462000Y-82123440D01*
X141697317Y-82079162D01*
X141913441Y-81940090D01*
X142052070Y-81737200D01*
X143549000Y-81737200D01*
X143821165Y-81683063D01*
X144051894Y-81528894D01*
X144282000Y-81298788D01*
X144282000Y-81518250D01*
G36*
X149527000Y-87123000D02*
X149547000Y-87123000D01*
X149547000Y-87377000D01*
X149527000Y-87377000D01*
X149527000Y-88126250D01*
X149685750Y-88285000D01*
X149901310Y-88285000D01*
X150083089Y-88209705D01*
X149842102Y-88442800D01*
X148682000Y-88442800D01*
X148409836Y-88496937D01*
X148384165Y-88514090D01*
X148179105Y-88651106D01*
X147879412Y-88950800D01*
X147147130Y-88950800D01*
X147164009Y-88902882D01*
X147193448Y-88697440D01*
X147325000Y-88697440D01*
X147560317Y-88653162D01*
X147776441Y-88514090D01*
X147921431Y-88301890D01*
X147972440Y-88050000D01*
X147972440Y-87886200D01*
X147975000Y-87886200D01*
X148247165Y-87832063D01*
X148390000Y-87736623D01*
X148390000Y-87776309D01*
X148486673Y-88009698D01*
X148665301Y-88188327D01*
X148898690Y-88285000D01*
X149114250Y-88285000D01*
X149273000Y-88126250D01*
X149273000Y-87377000D01*
X149253000Y-87377000D01*
X149253000Y-87123000D01*
X149273000Y-87123000D01*
X149273000Y-87103000D01*
X149527000Y-87103000D01*
X149527000Y-87123000D01*
X149527000Y-87123000D01*
G37*
X149527000Y-87123000D02*
X149547000Y-87123000D01*
X149547000Y-87377000D01*
X149527000Y-87377000D01*
X149527000Y-88126250D01*
X149685750Y-88285000D01*
X149901310Y-88285000D01*
X150083089Y-88209705D01*
X149842102Y-88442800D01*
X148682000Y-88442800D01*
X148409836Y-88496937D01*
X148384165Y-88514090D01*
X148179105Y-88651106D01*
X147879412Y-88950800D01*
X147147130Y-88950800D01*
X147164009Y-88902882D01*
X147193448Y-88697440D01*
X147325000Y-88697440D01*
X147560317Y-88653162D01*
X147776441Y-88514090D01*
X147921431Y-88301890D01*
X147972440Y-88050000D01*
X147972440Y-87886200D01*
X147975000Y-87886200D01*
X148247165Y-87832063D01*
X148390000Y-87736623D01*
X148390000Y-87776309D01*
X148486673Y-88009698D01*
X148665301Y-88188327D01*
X148898690Y-88285000D01*
X149114250Y-88285000D01*
X149273000Y-88126250D01*
X149273000Y-87377000D01*
X149253000Y-87377000D01*
X149253000Y-87123000D01*
X149273000Y-87123000D01*
X149273000Y-87103000D01*
X149527000Y-87103000D01*
X149527000Y-87123000D01*
M02*
