G04 #@! TF.FileFunction,Legend,Top*
%FSLAX46Y46*%
G04 Gerber Fmt 4.6, Leading zero omitted, Abs format (unit mm)*
G04 Created by KiCad (PCBNEW 4.0.7) date 09/14/17 09:13:08*
%MOMM*%
%LPD*%
G01*
G04 APERTURE LIST*
%ADD10C,0.100000*%
%ADD11C,0.120000*%
%ADD12C,0.150000*%
%ADD13C,0.080000*%
%ADD14R,1.150000X1.200000*%
%ADD15R,0.900000X1.300000*%
%ADD16R,1.300000X0.900000*%
%ADD17R,1.200000X1.150000*%
%ADD18R,1.650000X1.400000*%
%ADD19R,1.600000X1.600000*%
%ADD20C,1.600000*%
%ADD21C,1.800000*%
%ADD22O,1.700000X3.200000*%
%ADD23R,1.000000X1.400000*%
%ADD24R,1.850000X0.850000*%
G04 APERTURE END LIST*
D10*
D11*
X148800000Y-86850000D02*
X148800000Y-86150000D01*
X150000000Y-86150000D02*
X150000000Y-86850000D01*
X143518000Y-88982000D02*
X144518000Y-88982000D01*
X144518000Y-90342000D02*
X143518000Y-90342000D01*
X150196000Y-87114000D02*
X150196000Y-86114000D01*
X151556000Y-86114000D02*
X151556000Y-87114000D01*
X149045000Y-83275000D02*
X149045000Y-82275000D01*
X150405000Y-82275000D02*
X150405000Y-83275000D01*
X139020000Y-92270200D02*
X139020000Y-91270200D01*
X140380000Y-91270200D02*
X140380000Y-92270200D01*
X142183400Y-91295600D02*
X142183400Y-92295600D01*
X140823400Y-92295600D02*
X140823400Y-91295600D01*
X140962000Y-81706000D02*
X139962000Y-81706000D01*
X139962000Y-80346000D02*
X140962000Y-80346000D01*
X145446000Y-91602000D02*
X146146000Y-91602000D01*
X146146000Y-92802000D02*
X145446000Y-92802000D01*
X148174000Y-82200000D02*
X148174000Y-82900000D01*
X146974000Y-82900000D02*
X146974000Y-82200000D01*
X144692000Y-82304000D02*
X144692000Y-83304000D01*
X146392000Y-83304000D02*
X146392000Y-82304000D01*
X142770000Y-84266000D02*
X142770000Y-82866000D01*
X142770000Y-82866000D02*
X139970000Y-82866000D01*
X142770000Y-84266000D02*
X139970000Y-84266000D01*
D12*
X151638000Y-93726000D02*
X151892000Y-93726000D01*
X151892000Y-93726000D02*
X151892000Y-97790000D01*
X151892000Y-97790000D02*
X138938000Y-97790000D01*
X138938000Y-97790000D02*
X138938000Y-93726000D01*
X139446000Y-93726000D02*
X151638000Y-93726000D01*
X138938000Y-93726000D02*
X139446000Y-93726000D01*
X150114000Y-92329000D02*
X148844000Y-92329000D01*
X148844000Y-92329000D02*
X148844000Y-90297000D01*
X148844000Y-90297000D02*
X151638000Y-90297000D01*
X151638000Y-90297000D02*
X151638000Y-92329000D01*
X151638000Y-92329000D02*
X150114000Y-92329000D01*
X141325000Y-85225000D02*
X141325000Y-85325000D01*
X145975000Y-85225000D02*
X145975000Y-85425000D01*
X145975000Y-88475000D02*
X145975000Y-88275000D01*
X141325000Y-88475000D02*
X141325000Y-88275000D01*
X141325000Y-85225000D02*
X145975000Y-85225000D01*
X141325000Y-88475000D02*
X145975000Y-88475000D01*
X141325000Y-85325000D02*
X139975000Y-85325000D01*
D13*
X149191667Y-84953571D02*
X149167857Y-84977381D01*
X149096429Y-85001190D01*
X149048810Y-85001190D01*
X148977381Y-84977381D01*
X148929762Y-84929762D01*
X148905953Y-84882143D01*
X148882143Y-84786905D01*
X148882143Y-84715476D01*
X148905953Y-84620238D01*
X148929762Y-84572619D01*
X148977381Y-84525000D01*
X149048810Y-84501190D01*
X149096429Y-84501190D01*
X149167857Y-84525000D01*
X149191667Y-84548810D01*
X149667857Y-85001190D02*
X149382143Y-85001190D01*
X149525000Y-85001190D02*
X149525000Y-84501190D01*
X149477381Y-84572619D01*
X149429762Y-84620238D01*
X149382143Y-84644048D01*
X143991667Y-90851190D02*
X143825000Y-90613095D01*
X143705953Y-90851190D02*
X143705953Y-90351190D01*
X143896429Y-90351190D01*
X143944048Y-90375000D01*
X143967857Y-90398810D01*
X143991667Y-90446429D01*
X143991667Y-90517857D01*
X143967857Y-90565476D01*
X143944048Y-90589286D01*
X143896429Y-90613095D01*
X143705953Y-90613095D01*
X144467857Y-90851190D02*
X144182143Y-90851190D01*
X144325000Y-90851190D02*
X144325000Y-90351190D01*
X144277381Y-90422619D01*
X144229762Y-90470238D01*
X144182143Y-90494048D01*
X150816667Y-85201190D02*
X150650000Y-84963095D01*
X150530953Y-85201190D02*
X150530953Y-84701190D01*
X150721429Y-84701190D01*
X150769048Y-84725000D01*
X150792857Y-84748810D01*
X150816667Y-84796429D01*
X150816667Y-84867857D01*
X150792857Y-84915476D01*
X150769048Y-84939286D01*
X150721429Y-84963095D01*
X150530953Y-84963095D01*
X151007143Y-84748810D02*
X151030953Y-84725000D01*
X151078572Y-84701190D01*
X151197619Y-84701190D01*
X151245238Y-84725000D01*
X151269048Y-84748810D01*
X151292857Y-84796429D01*
X151292857Y-84844048D01*
X151269048Y-84915476D01*
X150983334Y-85201190D01*
X151292857Y-85201190D01*
X149641667Y-81326190D02*
X149475000Y-81088095D01*
X149355953Y-81326190D02*
X149355953Y-80826190D01*
X149546429Y-80826190D01*
X149594048Y-80850000D01*
X149617857Y-80873810D01*
X149641667Y-80921429D01*
X149641667Y-80992857D01*
X149617857Y-81040476D01*
X149594048Y-81064286D01*
X149546429Y-81088095D01*
X149355953Y-81088095D01*
X149808334Y-80826190D02*
X150117857Y-80826190D01*
X149951191Y-81016667D01*
X150022619Y-81016667D01*
X150070238Y-81040476D01*
X150094048Y-81064286D01*
X150117857Y-81111905D01*
X150117857Y-81230952D01*
X150094048Y-81278571D01*
X150070238Y-81302381D01*
X150022619Y-81326190D01*
X149879762Y-81326190D01*
X149832143Y-81302381D01*
X149808334Y-81278571D01*
X141366667Y-90451190D02*
X141200000Y-90213095D01*
X141080953Y-90451190D02*
X141080953Y-89951190D01*
X141271429Y-89951190D01*
X141319048Y-89975000D01*
X141342857Y-89998810D01*
X141366667Y-90046429D01*
X141366667Y-90117857D01*
X141342857Y-90165476D01*
X141319048Y-90189286D01*
X141271429Y-90213095D01*
X141080953Y-90213095D01*
X141795238Y-90117857D02*
X141795238Y-90451190D01*
X141676191Y-89927381D02*
X141557143Y-90284524D01*
X141866667Y-90284524D01*
X139691667Y-90451190D02*
X139525000Y-90213095D01*
X139405953Y-90451190D02*
X139405953Y-89951190D01*
X139596429Y-89951190D01*
X139644048Y-89975000D01*
X139667857Y-89998810D01*
X139691667Y-90046429D01*
X139691667Y-90117857D01*
X139667857Y-90165476D01*
X139644048Y-90189286D01*
X139596429Y-90213095D01*
X139405953Y-90213095D01*
X140144048Y-89951190D02*
X139905953Y-89951190D01*
X139882143Y-90189286D01*
X139905953Y-90165476D01*
X139953572Y-90141667D01*
X140072619Y-90141667D01*
X140120238Y-90165476D01*
X140144048Y-90189286D01*
X140167857Y-90236905D01*
X140167857Y-90355952D01*
X140144048Y-90403571D01*
X140120238Y-90427381D01*
X140072619Y-90451190D01*
X139953572Y-90451190D01*
X139905953Y-90427381D01*
X139882143Y-90403571D01*
X140061167Y-82268190D02*
X139894500Y-82030095D01*
X139775453Y-82268190D02*
X139775453Y-81768190D01*
X139965929Y-81768190D01*
X140013548Y-81792000D01*
X140037357Y-81815810D01*
X140061167Y-81863429D01*
X140061167Y-81934857D01*
X140037357Y-81982476D01*
X140013548Y-82006286D01*
X139965929Y-82030095D01*
X139775453Y-82030095D01*
X140489738Y-81768190D02*
X140394500Y-81768190D01*
X140346881Y-81792000D01*
X140323072Y-81815810D01*
X140275453Y-81887238D01*
X140251643Y-81982476D01*
X140251643Y-82172952D01*
X140275453Y-82220571D01*
X140299262Y-82244381D01*
X140346881Y-82268190D01*
X140442119Y-82268190D01*
X140489738Y-82244381D01*
X140513548Y-82220571D01*
X140537357Y-82172952D01*
X140537357Y-82053905D01*
X140513548Y-82006286D01*
X140489738Y-81982476D01*
X140442119Y-81958667D01*
X140346881Y-81958667D01*
X140299262Y-81982476D01*
X140275453Y-82006286D01*
X140251643Y-82053905D01*
X145141667Y-91503571D02*
X145117857Y-91527381D01*
X145046429Y-91551190D01*
X144998810Y-91551190D01*
X144927381Y-91527381D01*
X144879762Y-91479762D01*
X144855953Y-91432143D01*
X144832143Y-91336905D01*
X144832143Y-91265476D01*
X144855953Y-91170238D01*
X144879762Y-91122619D01*
X144927381Y-91075000D01*
X144998810Y-91051190D01*
X145046429Y-91051190D01*
X145117857Y-91075000D01*
X145141667Y-91098810D01*
X145332143Y-91098810D02*
X145355953Y-91075000D01*
X145403572Y-91051190D01*
X145522619Y-91051190D01*
X145570238Y-91075000D01*
X145594048Y-91098810D01*
X145617857Y-91146429D01*
X145617857Y-91194048D01*
X145594048Y-91265476D01*
X145308334Y-91551190D01*
X145617857Y-91551190D01*
X147466667Y-80978571D02*
X147442857Y-81002381D01*
X147371429Y-81026190D01*
X147323810Y-81026190D01*
X147252381Y-81002381D01*
X147204762Y-80954762D01*
X147180953Y-80907143D01*
X147157143Y-80811905D01*
X147157143Y-80740476D01*
X147180953Y-80645238D01*
X147204762Y-80597619D01*
X147252381Y-80550000D01*
X147323810Y-80526190D01*
X147371429Y-80526190D01*
X147442857Y-80550000D01*
X147466667Y-80573810D01*
X147633334Y-80526190D02*
X147942857Y-80526190D01*
X147776191Y-80716667D01*
X147847619Y-80716667D01*
X147895238Y-80740476D01*
X147919048Y-80764286D01*
X147942857Y-80811905D01*
X147942857Y-80930952D01*
X147919048Y-80978571D01*
X147895238Y-81002381D01*
X147847619Y-81026190D01*
X147704762Y-81026190D01*
X147657143Y-81002381D01*
X147633334Y-80978571D01*
X145441667Y-80903571D02*
X145417857Y-80927381D01*
X145346429Y-80951190D01*
X145298810Y-80951190D01*
X145227381Y-80927381D01*
X145179762Y-80879762D01*
X145155953Y-80832143D01*
X145132143Y-80736905D01*
X145132143Y-80665476D01*
X145155953Y-80570238D01*
X145179762Y-80522619D01*
X145227381Y-80475000D01*
X145298810Y-80451190D01*
X145346429Y-80451190D01*
X145417857Y-80475000D01*
X145441667Y-80498810D01*
X145870238Y-80617857D02*
X145870238Y-80951190D01*
X145751191Y-80427381D02*
X145632143Y-80784524D01*
X145941667Y-80784524D01*
X141080953Y-82701190D02*
X141080953Y-82201190D01*
X141200000Y-82201190D01*
X141271429Y-82225000D01*
X141319048Y-82272619D01*
X141342857Y-82320238D01*
X141366667Y-82415476D01*
X141366667Y-82486905D01*
X141342857Y-82582143D01*
X141319048Y-82629762D01*
X141271429Y-82677381D01*
X141200000Y-82701190D01*
X141080953Y-82701190D01*
X141842857Y-82701190D02*
X141557143Y-82701190D01*
X141700000Y-82701190D02*
X141700000Y-82201190D01*
X141652381Y-82272619D01*
X141604762Y-82320238D01*
X141557143Y-82344048D01*
%LPC*%
D14*
X149400000Y-87250000D03*
X149400000Y-85750000D03*
D15*
X144768000Y-89662000D03*
X143268000Y-89662000D03*
D16*
X150876000Y-85864000D03*
X150876000Y-87364000D03*
X149725000Y-82025000D03*
X149725000Y-83525000D03*
X139700000Y-91020200D03*
X139700000Y-92520200D03*
X141503400Y-92545600D03*
X141503400Y-91045600D03*
D15*
X139712000Y-81026000D03*
X141212000Y-81026000D03*
D17*
X145046000Y-92202000D03*
X146546000Y-92202000D03*
D14*
X147574000Y-81800000D03*
X147574000Y-83300000D03*
D18*
X145542000Y-83804000D03*
X145542000Y-81804000D03*
D19*
X139870000Y-83566000D03*
X142070000Y-83566000D03*
D20*
X142042000Y-93980000D03*
X144542000Y-93980000D03*
X146542000Y-93980000D03*
X149042000Y-93980000D03*
D21*
X147792000Y-96080000D03*
X143292000Y-96080000D03*
D22*
X151242000Y-96080000D03*
X139842000Y-96080000D03*
D23*
X151130000Y-90043000D03*
X149230000Y-90043000D03*
X150180000Y-92743000D03*
D24*
X140700000Y-85875000D03*
X140700000Y-86525000D03*
X140700000Y-87175000D03*
X140700000Y-87825000D03*
X146600000Y-87825000D03*
X146600000Y-87175000D03*
X146600000Y-86525000D03*
X146600000Y-85875000D03*
M02*
